<svg width="320" height="320" viewBox="0 0 320 320" xmlns="http://www.w3.org/2000/svg">
  <defs>
    <linearGradient id="bgSea" x1="0" y1="0" x2="1" y2="1">
      <stop offset="0%" stop-color="#34e6ff"/>
      <stop offset="100%" stop-color="#00a1c6"/>
    </linearGradient>
    <linearGradient id="shell" x1="0" y1="0" x2="1" y2="1">
      <stop offset="0%" stop-color="#ff9a77"/>
      <stop offset="60%" stop-color="#ff5f6d"/>
      <stop offset="100%" stop-color="#e13852"/>
    </linearGradient>
  </defs>
  <circle cx="160" cy="160" r="150" fill="url(#bgSea)"/>
  <circle cx="160" cy="160" r="131" fill="#fff8e8"/>
  <g transform="translate(8 14)">
    <g fill="#ff6071">
      <path d="M38 135c-6-1-12 3-15 9-5 10-1 21 10 24 10 3 22-3 23-14 0-6-3-10-8-14l13 0-5-12-18 7z"/>
      <path d="M266 135c6-1 12 3 15 9 5 10 1 21-10 24-10 3-22-3-23-14 0-6 3-10 8-14l-13 0 5-12 18 7z"/>
      <path d="M92 228c-15 12-26 24-39 29" stroke="#ff6071" stroke-width="11" stroke-linecap="round" fill="none"/>
      <path d="M116 236c-12 11-21 22-33 29" stroke="#ff6071" stroke-width="11" stroke-linecap="round" fill="none"/>
      <path d="M204 236c12 11 21 22 33 29" stroke="#ff6071" stroke-width="11" stroke-linecap="round" fill="none"/>
      <path d="M228 228c15 12 26 24 39 29" stroke="#ff6071" stroke-width="11" stroke-linecap="round" fill="none"/>
      <path d="M98 147c-18-17-34-22-46-17" stroke="#ff6071" stroke-width="12" stroke-linecap="round" fill="none"/>
      <path d="M206 147c18-17 34-22 46-17" stroke="#ff6071" stroke-width="12" stroke-linecap="round" fill="none"/>
    </g>
    <ellipse cx="152" cy="167" rx="72" ry="48" fill="url(#shell)"/>
    <ellipse cx="152" cy="174" rx="53" ry="29" fill="#ff7e8f" opacity=".65"/>
    <path d="M102 120V92" stroke="#ff6071" stroke-width="11" stroke-linecap="round"/>
    <path d="M202 120V92" stroke="#ff6071" stroke-width="11" stroke-linecap="round"/>
    <ellipse cx="102" cy="83" rx="20" ry="22" fill="#fff"/>
    <ellipse cx="202" cy="83" rx="20" ry="22" fill="#fff"/>
    <circle cx="108" cy="88" r="7" fill="#16334e"/>
    <circle cx="208" cy="88" r="7" fill="#16334e"/>
    <circle cx="110" cy="85" r="2" fill="#fff"/>
    <circle cx="210" cy="85" r="2" fill="#fff"/>
    <ellipse cx="116" cy="176" rx="11" ry="8" fill="#ffc4d2"/>
    <ellipse cx="188" cy="176" rx="11" ry="8" fill="#ffc4d2"/>
    <path d="M122 194c9 11 51 11 60 0" fill="none" stroke="#8a1433" stroke-width="7" stroke-linecap="round"/>
    <path d="M56 103l5 10 11 2-8 6 2 10-10-6-10 6 2-10-8-6 11-2 5-10z" fill="#ffd766"/>
    <path d="M247 130l4 8 9 1-6 5 1 9-8-5-8 5 1-9-6-5 9-1 4-8z" fill="#ffd766"/>
  </g>
  <text x="160" y="293" font-size="28" fill="#13384c" text-anchor="middle" font-family="Arial" font-weight="900">DON CANGREJO</text>
</svg>